# xmcd
#
# Track frame offsets:
#	150
#	25476
#	41479
#	56254
#	84642
#	102080
#	125875
#	141025
#	164700
#	183750
#	216307
#
# Disc length: 3145 seconds
#
# Revision: 0
# Processed by: cddbd v1.5.2PL0 Copyright (c) Steve Scherf et al.
# Submitted via: EasyCDDAExtractor 2010.4.0.0
#
DISCID=9b0c470b
DTITLE=Hundred Seventy Split - The World Won't Stop
DYEAR=2010
DGENRE=Bluesrock
TTITLE0=The  World Won't Stop
TTITLE1=Where The Blues Began
TTITLE2=No Deal
TTITLE3=Poison
TTITLE4=The Smoke
TTITLE5=All My Yesterdays
TTITLE6=Let The River Flow
TTITLE7=A Promise Is Forever
TTITLE8=Yes Man
TTITLE9=Going Home
TTITLE10=Wish You Were At Woodstock 
EXTD=
EXTT0=
EXTT1=
EXTT2=
EXTT3=
EXTT4=
EXTT5=
EXTT6=
EXTT7=
EXTT8=
EXTT9=
EXTT10=
PLAYORDER=
